<svg width="60" height="70" viewBox="0 0 70 60" fill="none" xmlns="http://www.w3.org/2000/svg">
<path d="M24.9145 59.5341V24.8116C3.24076 15.7066 0 0 0 0V34.551C0.0171469 47.034 24.9145 59.5341 24.9145 59.5341ZM30.9159 21.588V56.1219C32.8706 54.9044 35.1169 53.4298 37.3803 51.7323V18.7416C8.95072 16.0667 0.0171637 0 0.0171637 0C9.70517 19.7533 30.9159 21.588 30.9159 21.588ZM49.8461 5.28125V0C42.0443 2.36627 33.6423 3.66944 24.9316 3.68659C16.221 3.66944 7.83616 2.36627 0.0171637 0C0.0171637 0 18.9816 11.6256 49.8461 5.28125ZM43.3988 15.0036V46.571C47.0683 42.8844 49.8461 38.7177 49.8461 34.5682V10.9054C45.3365 11.3341 35.6999 11.8657 25.5661 9.97951C13.4946 7.73326 6.12147 4.7497 0.0171637 0.0171473C14.4892 15.3636 43.3988 15.0036 43.3988 15.0036Z" fill="#E30613"/>
</svg>
