<svg width="51" height="61" viewBox="0 0 51 61" fill="none" xmlns="http://www.w3.org/2000/svg">
<path d="M25.5 60.9578V25.3962C3.31698 16.0691 0 0 0 0V35.387C0 48.1608 25.5 60.9578 25.5 60.9578ZM31.6335 22.1125V57.4762C33.6237 56.2303 35.9281 54.7165 38.2442 52.9815L38.2325 19.2014C9.13624 16.4534 0 0 0 0C9.91602 20.2145 31.6335 22.1125 31.6335 22.1125ZM51 5.41459V0C43.016 2.42201 34.4267 3.76111 25.5 3.77275C16.5733 3.76111 7.99566 2.42201 0 0C0 0 19.4131 11.9005 51 5.41459ZM44.401 15.3588V47.6717C48.1602 43.8873 51 39.6372 51 35.387V11.1552C46.3911 11.5977 36.5217 12.1333 26.1401 10.212C13.7916 7.91812 6.23825 4.85567 0 0C14.8158 15.7198 44.401 15.3588 44.401 15.3588Z" fill="white"/>
</svg>
