<svg xmlns="http://www.w3.org/2000/svg" viewBox="0 0 342.36 202.12"><defs><style>.cls-1,.cls-26,.cls-31{fill:#fff;}.cls-2{fill:#f29909;}.cls-3{font-size:13px;fill:#054892;}.cls-3,.cls-31{font-family:CoreRhino55Medium, "Core Rhino 55 Medium";}.cls-4{letter-spacing:-0.01em;}.cls-5{letter-spacing:-0.01em;}.cls-6{letter-spacing:-0.01em;}.cls-7{letter-spacing:-0.01em;}.cls-8{letter-spacing:-0.01em;}.cls-9{letter-spacing:0em;}.cls-10{letter-spacing:0em;}.cls-11{letter-spacing:-0.02em;}.cls-12{letter-spacing:0em;}.cls-13{letter-spacing:-0.01em;}.cls-14{letter-spacing:-0.01em;}.cls-15{letter-spacing:0em;}.cls-16{letter-spacing:0em;}.cls-17{letter-spacing:-0.01em;}.cls-18{letter-spacing:0em;}.cls-19{letter-spacing:-0.02em;}.cls-20{letter-spacing:-0.01em;}.cls-21{letter-spacing:-0.01em;}.cls-22{letter-spacing:0em;}.cls-23{letter-spacing:-0.02em;}.cls-24{letter-spacing:-0.01em;}.cls-25{letter-spacing:0em;}.cls-26{font-size:18px;font-family:CoreRhino85Black, "Core Rhino 85 Black";}.cls-27{letter-spacing:-0.01em;}.cls-28{letter-spacing:0em;}.cls-29{letter-spacing:0em;}.cls-30{letter-spacing:0em;}.cls-31{font-size:14px;}.cls-32{letter-spacing:-0.05em;}.cls-33{letter-spacing:0em;}.cls-34{letter-spacing:-0.01em;}.cls-35{letter-spacing:-0.01em;}.cls-36{letter-spacing:0em;}.cls-37{letter-spacing:-0.01em;}.cls-38{letter-spacing:-0.01em;}</style></defs><g id="Layer_2" data-name="Layer 2"><g id="Capa_1" data-name="Capa 1"><rect class="cls-1" y="0.01" width="342.36" height="202.1" rx="12.98"/><path class="cls-2" d="M13,0h316.4a13,13,0,0,1,13,13V52.54a0,0,0,0,1,0,0H0a0,0,0,0,1,0,0V13A13,13,0,0,1,13,0Z"/><text class="cls-3" transform="translate(21.41 84.31)">A partir <tspan class="cls-4" x="54.62" y="0">d</tspan><tspan x="63.1" y="0">el 1 </tspan><tspan class="cls-4" x="91.28" y="0">d</tspan><tspan x="99.76" y="0">e s</tspan><tspan class="cls-5" x="117.73" y="0">e</tspan><tspan x="125.23" y="0">tie</tspan><tspan class="cls-6" x="142.49" y="0">m</tspan><tspan x="154.28" y="0">b</tspan><tspan class="cls-7" x="162.61" y="0">r</tspan><tspan x="168.57" y="0">e, un </tspan><tspan class="cls-8" x="204.64" y="0">n</tspan><tspan class="cls-9" x="212.92" y="0">utricioni</tspan><tspan class="cls-7" x="268.03" y="0">s</tspan><tspan class="cls-10" x="274.4" y="0">t</tspan><tspan class="cls-9" x="280.29" y="0">a se</tspan><tspan x="0" y="15.6">co</tspan><tspan class="cls-11" x="15.37" y="15.6">n</tspan><tspan class="cls-12" x="23.52" y="15.6">t</tspan><tspan class="cls-4" x="29.41" y="15.6">a</tspan><tspan x="37.08" y="15.6">c</tspan><tspan class="cls-12" x="44.28" y="15.6">t</tspan><tspan x="50.17" y="15.6">a</tspan><tspan class="cls-13" x="57.94" y="15.6">r</tspan><tspan x="63.86" y="15.6">á co</tspan><tspan class="cls-11" x="90.9" y="15.6">n</tspan><tspan x="99.05" y="15.6">tigo pa</tspan><tspan class="cls-13" x="145.3" y="15.6">r</tspan><tspan x="151.21" y="15.6">a coo</tspan><tspan class="cls-6" x="186.42" y="15.6">r</tspan><tspan x="192.35" y="15.6">dinar tu </tspan><tspan class="cls-14" x="248.7" y="15.6">f</tspan><tspan x="254.15" y="15.6">echa</tspan><tspan class="cls-4" x="0" y="31.2">d</tspan><tspan class="cls-15" x="8.48" y="31.2">e </tspan><tspan class="cls-16" x="19.94" y="31.2">e</tspan><tspan class="cls-17" x="27.44" y="31.2">v</tspan><tspan class="cls-4" x="34.96" y="31.2">a</tspan><tspan class="cls-7" x="42.63" y="31.2">l</tspan><tspan x="46.73" y="31.2">u</tspan><tspan class="cls-4" x="54.74" y="31.2">a</tspan><tspan class="cls-18" x="62.41" y="31.2">ción.</tspan></text><text class="cls-3" transform="translate(21.41 154.63)">No o<tspan class="cls-19" x="29.56" y="0">l</tspan><tspan x="33.51" y="0">vi</tspan><tspan class="cls-20" x="44.97" y="0">d</tspan><tspan class="cls-16" x="53.44" y="0">e</tspan><tspan x="60.94" y="0">s gua</tspan><tspan class="cls-21" x="95.48" y="0">r</tspan><tspan class="cls-15" x="101.41" y="0">dar tu u</tspan><tspan class="cls-22" x="153.59" y="0">s</tspan><tspan x="160.03" y="0">uario y co</tspan><tspan class="cls-23" x="225.16" y="0">n</tspan><tspan class="cls-9" x="233.31" y="0">t</tspan><tspan class="cls-13" x="239.24" y="0">r</tspan><tspan class="cls-7" x="245.15" y="0">a</tspan><tspan x="252.79" y="0">seña</tspan><tspan x="0" y="15.6">pa</tspan><tspan class="cls-13" x="16.13" y="15.6">r</tspan><tspan x="22.05" y="15.6">a </tspan><tspan class="cls-13" x="33.72" y="15.6">t</tspan><tspan x="39.48" y="15.6">e</tspan><tspan class="cls-22" x="47.05" y="15.6">n</tspan><tspan class="cls-15" x="55.39" y="15.6">er </tspan><tspan class="cls-4" x="72.94" y="15.6">a</tspan><tspan x="80.61" y="15.6">cc</tspan><tspan class="cls-16" x="95.02" y="15.6">e</tspan><tspan x="102.52" y="15.6">so a tus d</tspan><tspan class="cls-11" x="165.67" y="15.6">a</tspan><tspan class="cls-24" x="173.18" y="15.6">t</tspan><tspan class="cls-25" x="178.94" y="15.6">o</tspan><tspan x="187.05" y="15.6">s.</tspan></text><text class="cls-26" transform="translate(112.91 25.11)">¡<tspan class="cls-27" x="5.98" y="0">F</tspan><tspan class="cls-28" x="15.98" y="0">el</tspan><tspan class="cls-29" x="33.64" y="0">i</tspan><tspan x="39.58" y="0">c</tspan><tspan class="cls-30" x="49.77" y="0">i</tspan><tspan x="55.75" y="0">da</tspan><tspan class="cls-30" x="78.66" y="0">d</tspan><tspan class="cls-29" x="90.68" y="0">e</tspan><tspan x="101.29" y="0">s!</tspan></text><text class="cls-31" transform="translate(113.55 40.09)"><tspan class="cls-32">Y</tspan><tspan class="cls-33" x="8.64" y="0">a </tspan><tspan class="cls-34" x="21.21" y="0">e</tspan><tspan class="cls-35" x="29.29" y="0">s</tspan><tspan class="cls-36" x="36.15" y="0">t</tspan><tspan class="cls-37" x="42.49" y="0">á</tspan><tspan x="50.72" y="0">s i</tspan><tspan class="cls-35" x="65.98" y="0">n</tspan><tspan x="74.9" y="0">scri</tspan><tspan class="cls-38" x="100.27" y="0">t</tspan><tspan class="cls-33" x="106.47" y="0">o</tspan></text></g></g></svg>